Simulation
nRows=49
nColumns=15
endheader
time  TH_x TH_y TH_z SC_y  SC_z  SC_x  AC_y  AC_z  AC_x  GH_y  GH_z  GH_yy  EL_x  PS_y
1.95  0.000000  0.000000  0.000000  -32.83560050075645  10.05274652960291  15.102839922532297  63.43905044446959  15.89295738643278  7.937689454439048  46.900022195291356  59.91700985755705  -40.4459510878085  22.313724966535034  0.000000
1.989  0.000000  0.000000  0.000000  -32.53459189816169  9.631766766180869  14.273205025806659  63.3672758483328  15.82682295092091  7.43395551379201  47.072983267260156  58.82230906878396  -39.774917596508  22.514362271590244  0.000000
2.028  0.000000  0.000000  0.000000  -32.16710044864933  9.161729599963024  13.362456539375568  63.25247181313255  15.769126394829224  6.900279316565704  47.19930367685345  57.579149120491  -38.982415943050924  22.719486221475048  0.000000
2.067  0.000000  0.000000  0.000000  -31.743848357435656  8.64402815128473  12.407546741753936  63.11129726579765  15.685116998850775  6.331744574918562  47.26995751950565  56.20217055549101  -38.07264361068385  22.921670437550073  0.000000
2.106  0.000000  0.000000  0.000000  -31.279743706381062  8.082577273861533  11.421457003148134  62.95154801510057  15.564744194876448  5.734372954505148  47.28546578858865  54.70591207662773  -37.058025563696354  23.115901364699674  0.000000
2.145  0.000000  0.000000  0.000000  -30.788703661172374  7.479340919001133  10.410269216471452  62.779705445210034  15.422043637458014  5.125124797251446  47.24163668696999  53.09855485221999  -35.95047169408374  23.29470844183653  0.000000
2.184  0.000000  0.000000  0.000000  -30.289063080670452  6.847904696276666  9.394967990545982  62.599891696980876  15.259452698274462  4.5194623918415555  47.139386701366206  51.393169574027446  -34.76673516271029  23.45146299725813  0.000000
2.223  0.000000  0.000000  0.000000  -29.799432738119833  6.202964985182991  8.410137708845417  62.417995525299816  15.056793010094617  3.9218738922984944  46.97989430091028  49.612547425873984  -33.521699239509346  23.58199720126238  0.000000
2.262  0.000000  0.000000  0.000000  -29.334559894451687  5.552672904464205  7.486750346721851  62.237873880816764  14.7918067121489  3.328834710246746  46.75923195827272  47.78041788351571  -32.22282521796674  23.686636937082994  0.000000
2.301  0.000000  0.000000  0.000000  -28.90437857967392  4.903874433559936  6.645358895952  62.05861252091174  14.448562914093644  2.7346786264485505  46.461953929577106  45.91408827904854  -30.860921500986656  23.773479912710318  0.000000
2.34  0.000000  0.000000  0.000000  -28.510496287184424  4.254215507675061  5.895492918889528  61.871761910451916  14.0271480029758  2.128367249079529  46.05907324411144  44.01864267206117  -29.412073977094224  23.858218002898482  0.000000
2.379  0.000000  0.000000  0.000000  -28.15090750573669  3.6061709324945785  5.21880425830314  61.665127435309245  13.551055505460878  1.5151784023798498  45.525869628616675  42.09297795202709  -27.85292590100943  23.957529029540716  0.000000
2.418  0.000000  0.000000  0.000000  -27.82427996724077  2.974966951773707  4.589857342284631  61.421136696342955  13.041597116293874  0.9116353305472755  44.865833623261906  40.139448601658145  -26.174151202742365  24.08738050890474  0.000000
2.457  0.000000  0.000000  0.000000  -27.519100333008687  2.371748497699124  3.985561573968452  61.11699119590868  12.517190572782868  0.32606744105010343  44.09095632801292  38.16179956064783  -24.36885444138186  24.270946460067197  0.000000
2.496  0.000000  0.000000  0.000000  -27.218448677965714  1.7975455113545231  3.369465246967033  60.727891947534786  12.012891902234792  -0.2382620654749969  43.21505110611391  36.1715553661986  -22.44096667081303  24.527544739633473  0.000000
2.535  0.000000  0.000000  0.000000  -26.90905594085316  1.2481169241300327  2.7109648821277483  60.235596531239025  11.570816837411172  -0.783229176754522  42.247862445321196  34.18917357436643  -20.396162016787414  24.870535058960616  0.000000
2.574  0.000000  0.000000  0.000000  -26.586954436779173  0.7201185444337092  2.016178406439109  59.6390161130424  11.21158545323164  -1.3259094130361888  41.19521815920397  32.23683330288742  -18.253087594630564  25.293487070846904  0.000000
2.613  0.000000  0.000000  0.000000  -26.273026867450433  0.2099098662574802  1.3514158369948124  58.95844970586614  10.894745213070962  -1.8997140862976785  40.03791802792837  30.327903534022727  -16.007465977911465  25.7601347946044  0.000000
2.652  0.000000  0.000000  0.000000  -26.00422555832494  -0.282163222671384  0.8231502359906838  58.22377340766841  10.542912895655173  -2.549110599111873  38.74366355588563  28.445273644491287  -13.639954591861125  26.232165663149157  0.000000
2.691  0.000000  0.000000  0.000000  -25.808041824926704  -0.7328194477325825  0.4845029726362975  57.46284484362363  10.095535701427611  -3.265956573421808  37.32730557649354  26.55672082731223  -11.16903935394512  26.66340330589673  0.000000
2.73  0.000000  0.000000  0.000000  -25.674329622030047  -1.1020805384119436  0.28822031327906755  56.67591765851675  9.572757108593551  -3.999015028551493  35.921862554807724  24.635385672364695  -8.713410451366544  27.028023333818542  0.000000
2.769  0.000000  0.000000  0.000000  -25.5457086075529  -1.3641227873351587  0.14294808567305187  55.80411279775005  9.057978176240159  -4.713451558136855  34.73589070970307  22.685089178152484  -6.471768594919984  27.302870510420405  0.000000
2.808  0.000000  0.000000  0.000000  -25.378044778891645  -1.543473774834108  -0.00023218180829894967  54.76406189177052  8.633186403337488  -5.467854571461216  34.03420185445381  20.770394337200887  -4.707795086590852  27.483135437621073  0.000000
2.847  0.000000  0.000000  0.000000  -25.186438685931318  -1.6020566859250878  -0.09329482566155403  53.514823829255555  8.212175646261317  -6.302491042479593  33.97882905258776  18.938623465419237  -3.6138755982194586  27.583362164249095  0.000000
2.886  0.000000  0.000000  0.000000  -25.08942004524998  -1.5101981469316543  -0.05256120631108977  52.37717014147874  7.602796162521019  -7.067660028339316  33.74376010445272  17.11846326052981  -2.502633617019568  27.56228295553766  0.000000
2.925  0.000000  0.000000  0.000000  -25.249636606754482  -1.2354757740861508  0.15245753706610576  51.7591403414037  6.69888338683569  -7.501775919538018  32.28861776728702  15.230587356859873  -0.39526178319320665  27.40006598715959  0.000000
2.964  0.000000  0.000000  0.000000  -25.631362134249855  -0.7527269690706213  0.48296179126434147  51.44149057786597  5.606036027574869  -7.577382974612769  30.18554809142133  13.29330714726932  2.251500742927664  27.201011875426847  0.000000
3.003  0.000000  0.000000  0.000000  -26.06650559626001  -0.25618583097323133  0.8475198431732545  51.191370970572905  4.583229871953899  -7.5554656362219506  28.237088052508586  11.381044943834763  4.641002592966572  27.010682996075523  0.000000
3.042  0.000000  0.000000  0.000000  -26.495156520099236  0.1314480178477108  1.208946028355245  51.02928694223531  3.737581833821172  -7.5910447935618945  26.5199649165631  9.555082234130094  6.659810226604514  26.793697057460413  0.000000
3.081  0.000000  0.000000  0.000000  -26.905096428081393  0.42315411543138254  1.5811237329663566  50.905792891003564  3.060271633268032  -7.695884124761754  24.985434171695587  7.827264333153599  8.357392045014052  26.578906086997353  0.000000
3.12  0.000000  0.000000  0.000000  -27.287423936153036  0.6247958946710279  1.964352138057437  50.84193526073221  2.5252605225749423  -7.853412001178555  23.479811321506304  6.224169022233279  9.87814366665591  26.369949767616504  0.000000
3.159  0.000000  0.000000  0.000000  -27.63539608417588  0.7616492094036732  2.355394970651566  50.82317168481444  2.1021268376929276  -8.029272658360531  22.03878446511165  4.751556198088251  11.179220105625582  26.172271934289355  0.000000
3.198  0.000000  0.000000  0.000000  -27.944674465421464  0.8462135795257453  2.739063386818897  50.84127839149252  1.7779103557037326  -8.2177635115967  21.16506687373766  3.4212763463171876  11.742767965229241  25.998412282716515  0.000000
3.237  0.000000  0.000000  0.000000  -28.211431997128212  0.8884166432081888  3.106035213935778  50.88681788312928  1.541550542966653  -8.406258552375158  21.98535427247691  2.2402221050220463  10.44565758378492  25.854361221184597  0.000000
3.276  0.000000  0.000000  0.000000  -28.43327230443176  0.8937029083120649  3.447892809897109  50.95641679164233  1.3837086760754542  -8.58706492545078  28.714249395395104  1.2260085916572379  3.0648446027493517  25.749821019726387  0.000000
3.315  0.000000  0.000000  0.000000  -28.610564241318027  0.8664578256048111  3.757907398024325  51.04746777607183  1.295600000320957  -8.753861056598799  67.5845077101114  0.5137088699680699  -36.632966131749875  25.688747005168352  0.000000
3.354  0.000000  0.000000  0.000000  -28.74271311305762  0.8101597837945874  4.031050658088908  51.15338950409639  1.2696231876698099  -8.901934219183698  139.52746935123298  0.7297522751273522  -109.57904765618638  25.67862731505273  0.000000
3.393  0.000000  0.000000  0.000000  -28.833288959230167  0.7296341143888352  4.261601035942593  51.27299456183065  1.3002861436579014  -9.034145964413431  154.13321869909038  1.305328912316877  -125.34680863512538  25.717967549615807  0.000000
3.432  0.000000  0.000000  0.000000  -28.88312399141612  0.6284017051078642  4.449624521194787  51.39923349614871  1.3828703460148823  -9.14772506071748  156.28957510719275  1.8223541177601168  -128.79215487513818  25.804034863468814  0.000000
3.471  0.000000  0.000000  0.000000  -28.89859700067416  0.5118363943179514  4.593965135900044  51.532614384436094  1.5124970353896332  -9.244030667199466  155.18498746555065  2.2538699372403177  -129.0603194594842  25.926406733262343  0.000000
3.51  0.000000  0.000000  0.000000  -28.884908918578503  0.38451549589475414  4.694906969609457  51.6671492571506  1.6865901029853048  -9.322344840096376  152.9189374408989  2.6095284120655915  -128.201778570147  26.081701077039963  0.000000
3.549  0.000000  0.000000  0.000000  -28.8505787730966  0.25238838297964616  4.7506894954757755  51.80431052700325  1.9009754224469924  -9.378845630755178  150.0625361667651  2.9064196448949025  -126.73684691543822  26.25891776146626  0.000000
3.588  0.000000  0.000000  0.000000  -28.80659109017403  0.12234408804253814  4.7586960450923765  51.94380425481415  2.1552058353668837  -9.40493990038971  146.91080275248763  3.1658722363817624  -124.91224509962802  26.459297248685534  0.000000
3.627  0.000000  0.000000  0.000000  -28.765876650567495  0.0045361875352522936  4.7180214831263205  52.09933619374506  2.441669744434495  -9.373593030339853  143.70924822770473  3.39745366668368  -122.92087833719398  26.67002437587196  0.000000
3.666  0.000000  0.000000  0.000000  -28.744006235249472  -0.09152091568566587  4.630056697500461  52.287277920780035  2.7546796699748146  -9.256046290861304  140.89125229685212  3.596173424648463  -121.15273431707122  26.89453112466657  0.000000
3.705  0.000000  0.000000  0.000000  -28.762192065252567  -0.16379598819985425  4.495084883192616  52.53456593586562  3.088545244653814  -9.042966642511358  138.716151462253  3.7460205018693644  -119.82122659274525  27.112411793366967  0.000000
3.7439999999999998  0.000000  0.000000  0.000000  -28.823775056847776  -0.23222527331235138  4.317573811228251  52.83375318537938  3.4560839291143397  -8.756718409909967  137.85778867766635  3.8243451893403804  -119.55195689920677  27.32135036186576  0.000000
3.783  0.000000  0.000000  0.000000  -28.948143476026885  -0.30865027105906623  4.097740903972555  53.159360817475594  3.8620617356377536  -8.44118626587483  138.7947577616461  3.843177478666898  -120.75909738897847  27.50166648088601  0.000000
3.822  0.000000  0.000000  0.000000  -29.074976499411797  -0.4310511987315714  3.827574243854821  53.45783575488521  4.3188841266870845  -8.158277650966234  142.74848896187234  3.8286294322489476  -124.6331067640102  27.64814008716928  0.000000
